<?xml version="1.0" encoding="UTF-8" standalone="no"?>
<!-- Created with Inkscape (http://www.inkscape.org/) -->

<svg xmlns:dc="http://purl.org/dc/elements/1.1/" xmlns:cc="http://creativecommons.org/ns#" xmlns:rdf="http://www.w3.org/1999/02/22-rdf-syntax-ns#" xmlns:svg="http://www.w3.org/2000/svg" xmlns="http://www.w3.org/2000/svg" xmlns:sodipodi="http://sodipodi.sourceforge.net/DTD/sodipodi-0.dtd" xmlns:inkscape="http://www.inkscape.org/namespaces/inkscape" width="29.696442" height="12.328591" id="svg5018" version="1.1" inkscape:version="0.47 r22583" sodipodi:docname="New document 2">
  <defs id="defs5020">
    <inkscape:perspective sodipodi:type="inkscape:persp3d" inkscape:vp_x="0 : 526.18109 : 1" inkscape:vp_y="0 : 1000 : 0" inkscape:vp_z="744.09448 : 526.18109 : 1" inkscape:persp3d-origin="372.04724 : 350.78739 : 1" id="perspective5026" />
    <inkscape:perspective id="perspective3969" inkscape:persp3d-origin="0.5 : 0.33333333 : 1" inkscape:vp_z="1 : 0.5 : 1" inkscape:vp_y="0 : 1000 : 0" inkscape:vp_x="0 : 0.5 : 1" sodipodi:type="inkscape:persp3d" />
    <inkscape:perspective id="perspective8177" inkscape:persp3d-origin="0.5 : 0.33333333 : 1" inkscape:vp_z="1 : 0.5 : 1" inkscape:vp_y="0 : 1000 : 0" inkscape:vp_x="0 : 0.5 : 1" sodipodi:type="inkscape:persp3d" />
  </defs>
  <sodipodi:namedview id="base" pagecolor="#ffffff" bordercolor="#666666" borderopacity="1.0" inkscape:pageopacity="0.0" inkscape:pageshadow="2" inkscape:zoom="5.6568543" inkscape:cx="-54.611257" inkscape:cy="7.5179068" inkscape:document-units="px" inkscape:current-layer="layer1" showgrid="false" inkscape:window-width="1600" inkscape:window-height="838" inkscape:window-x="-8" inkscape:window-y="-8" inkscape:window-maximized="1" />
  <metadata id="metadata5023">
    <rdf:RDF>
      <cc:Work rdf:about="">
        <dc:format>image/svg+xml</dc:format>
        <dc:type rdf:resource="http://purl.org/dc/dcmitype/StillImage" />
        <dc:title></dc:title>
      </cc:Work>
    </rdf:RDF>
  </metadata>
  <g inkscape:label="Layer 1" inkscape:groupmode="layer" id="layer1" transform="translate(-259.16866,-689.94334)">
    <g id="g9043">
      <path class="fil0 str14" d="m 265.91785,692.01311 -1.25985,0 -5.03939,8.99891 0.09,0.09 8.09902,0 4.76942,0 0.09,0.09 -0.09,0.17998 0.09,0.17998 2.69967,0 0.09,-0.17998 -0.09,-0.17998 8.00904,-0.09 4.9494,0 0.09,-0.09 -0.09,-0.09 -4.9494,-8.99891 -3.77955,0 -13.67834,0.09 0,0 z" id="path825" style="fill:#000000;fill-rule:evenodd;stroke:#000000;stroke-width:0.8998912;stroke-linejoin:bevel;stroke-opacity:1" />
      <path class="fil10 str14" d="m 259.7086,701.01202 0,0.26997 0,0.09 0.17998,0 12.59847,0 0.09,0.09 -0.09,0.09 -0.09,0 0,0.09 0,0.09 0,0 0.17998,0.09 2.78966,0 0,0 0.09,0 0.09,-0.09 0.09,-0.09 0,-0.09 -0.09,0 -0.09,-0.09 0,-0.09 12.77846,0 0.09,0 0.09,-0.09 0,0 0,-0.17998 0,-0.09 -0.09,0.09 -12.95844,0 -0.17997,0.09 0,0.09 0,0.09 0,0 0,0.09 0,0 -2.15974,0 -0.17998,0 0,-0.09 0,-0.09 0.09,0 0,-0.09 -0.09,-0.09 -0.09,0 -12.77846,0 -0.09,0 -0.09,-0.09 -0.09,0 0,0 z" id="path827" style="fill:#000000;fill-rule:evenodd;stroke:#000000;stroke-width:0.8998912;stroke-linejoin:bevel;stroke-opacity:1" />
      <path class="fil11 str14" d="m 266.00784,691.47318 -0.8999,0.53993 -4.31947,8.54897 1.97976,0 1.88977,-0.17998 2.24973,-0.35996 2.24972,-0.35995 1.25985,-0.09 0.8099,0.09 0.98988,0.26996 0.44995,0.44995 0.35996,0.53993 0,0.26997 1.88977,0 0.09,0 0.09,-0.62992 0.35995,-0.62993 0.62993,-0.35995 0.89989,-0.17998 0.8099,-0.09 1.34984,0.17998 1.34983,0.35995 2.5197,0.53994 2.42971,0.17998 1.79978,0 -4.31948,-8.54897 -0.98988,-0.53993 -7.64908,4.49945 -8.27899,-4.49945 0,0 z" id="path829" style="fill:#000000;fill-opacity:1;fill-rule:evenodd;stroke:#000000;stroke-width:0.8998912;stroke-linejoin:bevel;stroke-opacity:1" />
      <path class="fil1 str15" d="m 274.01687,691.38319 0,8.90892" id="path831" style="fill:none;stroke:#1f1a17;stroke-width:1.16985857;stroke-linejoin:bevel" />
      <path class="fil1 str14" d="m 260.87846,700.56208 1.43982,-0.98988" id="path833" style="fill:none;stroke:#000000;stroke-width:0.8998912;stroke-linejoin:bevel;stroke-opacity:1" />
      <path class="fil1 str14" d="m 285.71545,699.75218 1.52982,0.8099" id="path835" style="fill:none;stroke:#000000;stroke-width:0.8998912;stroke-linejoin:bevel;stroke-opacity:1" />
      <path class="fil10 str14" d="m 265.91785,691.47318 -3.77955,8.279 1.34984,-0.17998 1.97976,-0.17998 1.70979,-0.44995 1.79979,-0.44994 1.16985,-0.17998 0.80991,0.09 0.8099,0.17998 0.71991,0.26996 0.53994,0.26997 0.35995,0.35996 0.35996,0.35995 0.26997,0.53994 0.17998,-0.53994 0.44994,-0.53993 0.44995,-0.35996 0.8099,-0.35995 0.89989,-0.17998 0.71991,0 0.8099,0 1.52982,0.26997 2.5197,0.62992 1.97976,0.35996 1.16985,0.09 0.35996,0.09 -3.68955,-8.18901 -1.25985,-0.17997 -1.07987,-0.09 -0.98988,-0.17998 -0.71991,-0.17998 -0.71992,-0.26997 -0.71991,-0.17998 -0.62992,-0.09 -0.53994,0.09 -0.44994,0.09 -0.35996,0.09 -0.26997,0.26997 -0.26996,0.17998 -0.17998,0.26997 0,0.09 -0.17998,-0.17998 -0.17998,-0.35996 -0.17998,-0.17998 -0.17998,-0.17998 -0.44994,-0.09 -0.44995,-0.09 -0.98988,0 -0.8099,0.26996 -0.8099,0.17998 -0.71991,0.17998 -0.44995,0.09 -0.8099,0.09 -0.98988,0.17998 -0.71992,0 -0.17997,0 0,0 z" id="path837" style="fill:#1f1a17;fill-rule:evenodd;stroke:#ffffff;stroke-width:0.8998912;stroke-linejoin:bevel" />
      <path class="fil10 str14" d="m 266.00784,691.38319 -3.68956,8.18901 1.34984,-0.17998 1.88977,-0.17998 1.70979,-0.44995 1.79979,-0.35995 1.16985,-0.17998 0.71992,0 0.8099,0.17998 0.8099,0.26997 0.44995,0.26996 0.35995,0.35996 0.35996,0.35996 0.26997,0.53993 0.17998,-0.44994 0.44994,-0.62993 0.44995,-0.35996 0.8099,-0.35995 0.8099,-0.09 0.71991,-0.09 0.80991,0 1.52981,0.35996 2.5197,0.53993 1.97976,0.35996 1.16986,0.17998 0.26996,0 -3.59956,-8.09902 -1.16986,-0.17998 -1.16986,-0.09 -0.98988,-0.17998 -0.62992,-0.17998 -0.80991,-0.26997 -0.62992,-0.17997 -0.62992,0 -0.53994,0 -0.44994,0.09 -0.35996,0.09 -0.26997,0.26997 -0.26996,0.17998 -0.17998,0.26997 0,0.09 -0.17998,-0.17998 -0.17998,-0.35996 -0.17998,-0.17998 -0.17998,-0.17998 -0.44994,-0.09 -0.44995,-0.09 -0.98988,0 -0.8099,0.26996 -0.8099,0.17998 -0.62993,0.17998 -0.53993,0.09 -0.71991,0.09 -0.98988,0.17998 -0.71992,0 -0.17997,0 0,0 z" id="path839" style="fill:#ffffff;fill-opacity:1;fill-rule:evenodd;stroke:#000000;stroke-width:0.8998912;stroke-linejoin:bevel;stroke-opacity:1" />
      <path class="fil1 str14" d="m 274.01687,691.47318 0,8.63895 0,0.09" id="path841" style="fill:none;stroke:#000000;stroke-width:0.8998912;stroke-linejoin:bevel;stroke-opacity:1" />
    </g>
  </g>
</svg>
