<?xml version="1.0" encoding="UTF-8" standalone="no"?>
<!-- Created with Inkscape (http://www.inkscape.org/) -->

<svg
   xmlns:dc="http://purl.org/dc/elements/1.1/"
   xmlns:cc="http://creativecommons.org/ns#"
   xmlns:rdf="http://www.w3.org/1999/02/22-rdf-syntax-ns#"
   xmlns:svg="http://www.w3.org/2000/svg"
   xmlns="http://www.w3.org/2000/svg"
   xmlns:sodipodi="http://sodipodi.sourceforge.net/DTD/sodipodi-0.dtd"
   xmlns:inkscape="http://www.inkscape.org/namespaces/inkscape"
   width="32.000004"
   height="32.000004"
   id="svg2"
   version="1.1"
   inkscape:version="0.48.4 r9939"
   sodipodi:docname="prev.svg">
  <defs
     id="defs4">
    <inkscape:perspective
       sodipodi:type="inkscape:persp3d"
       inkscape:vp_x="0 : 526.18109 : 1"
       inkscape:vp_y="0 : 1000 : 0"
       inkscape:vp_z="744.09448 : 526.18109 : 1"
       inkscape:persp3d-origin="372.04724 : 350.78739 : 1"
       id="perspective10" />
  </defs>
  <sodipodi:namedview
     id="base"
     pagecolor="#ffffff"
     bordercolor="#666666"
     borderopacity="1.0"
     inkscape:pageopacity="0.0"
     inkscape:pageshadow="2"
     inkscape:zoom="1.626999"
     inkscape:cx="-57.58609"
     inkscape:cy="-156.13278"
     inkscape:document-units="px"
     inkscape:current-layer="svg2"
     showgrid="false"
     inkscape:window-width="959"
     inkscape:window-height="744"
     inkscape:window-x="65"
     inkscape:window-y="24"
     inkscape:window-maximized="1"
     fit-margin-top="0"
     fit-margin-left="0"
     fit-margin-right="0"
     fit-margin-bottom="0" />
  <metadata
     id="metadata7">
    <rdf:RDF>
      <cc:Work
         rdf:about="">
        <dc:format>image/svg+xml</dc:format>
        <dc:type
           rdf:resource="http://purl.org/dc/dcmitype/StillImage" />
        <dc:title />
      </cc:Work>
    </rdf:RDF>
  </metadata>
  <g
     inkscape:label="Layer 1"
     inkscape:groupmode="layer"
     id="layer1"
     transform="translate(370.78325,-175.6131)" />
  <g
     id="g2987"
     transform="scale(0.03214062,0.03214062)">
    <g
       id="g5291">
      <path
         style="fill:#2ba6cb;fill-opacity:1;stroke:#2284a1;stroke-width:21.92980576;stroke-miterlimit:3;stroke-opacity:1;stroke-dasharray:none;stroke-dashoffset:0"
         d="m 10.964903,984.6601 0,-973.695197 973.695197,0 0,973.695197 z"
         id="rect2984"
         inkscape:connector-curvature="0" />
      <path
         id="path3755"
         d="m 22.125003,22.125383 951.374997,0 0,22.125 -951.374997,0 z"
         style="fill:#94d2ef;fill-opacity:1;stroke:none"
         inkscape:connector-curvature="0" />
    </g>
    <path
       inkscape:connector-curvature="0"
       id="path2816"
       d="m 493.3125,354.8125 c 4,-3 9,-3 13,-1 4,2 7,6 7,11 l 0,62 168,0 c 7,0 13,6 13,13 l 0,116 c 0,7 -6,13 -13,13 l -168,0 0,62 c 0,5 -3,9 -7,11 -4,2 -9,2 -13,-1 l -187,-132 c -3,-2 -5,-7 -5,-11 l 0,0 c 0,-4 2,-8 5,-10 z"
       style="fill:#ffffff;fill-opacity:1;stroke:#000000;stroke-width:1px;stroke-linecap:butt;stroke-linejoin:miter;stroke-opacity:1" />
  </g>
</svg>
