<?xml version="1.0" encoding="UTF-8" standalone="no"?>
<!-- Creator: CorelDRAW -->

<svg xmlns:dc="http://purl.org/dc/elements/1.1/" xmlns:cc="http://creativecommons.org/ns#" xmlns:rdf="http://www.w3.org/1999/02/22-rdf-syntax-ns#" xmlns:svg="http://www.w3.org/2000/svg" xmlns="http://www.w3.org/2000/svg" xmlns:sodipodi="http://sodipodi.sourceforge.net/DTD/sodipodi-0.dtd" xmlns:inkscape="http://www.inkscape.org/namespaces/inkscape" xml:space="preserve" width="156.94102" height="156.94099" style="fill-rule:evenodd" viewBox="0 0 1744 1743.7888" id="svg2" version="1.1" inkscape:version="0.47 r22583" sodipodi:docname="tip.svg" inkscape:export-filename="C:\Users\simond\Desktop\tip.png" inkscape:export-xdpi="18.350845" inkscape:export-ydpi="18.350845"><metadata id="metadata13"><rdf:RDF><cc:Work rdf:about=""><dc:format>image/svg+xml</dc:format><dc:type rdf:resource="http://purl.org/dc/dcmitype/StillImage" /><dc:title></dc:title></cc:Work></rdf:RDF></metadata><sodipodi:namedview pagecolor="#ffffff" bordercolor="#666666" borderopacity="1" objecttolerance="10" gridtolerance="10" guidetolerance="10" inkscape:pageopacity="0" inkscape:pageshadow="2" inkscape:window-width="1600" inkscape:window-height="838" id="namedview11" showgrid="false" inkscape:zoom="5.290813" inkscape:cx="39.759275" inkscape:cy="53.407187" inkscape:window-x="-8" inkscape:window-y="-8" inkscape:window-maximized="1" inkscape:current-layer="svg2" />
 <defs id="defs4"><inkscape:perspective sodipodi:type="inkscape:persp3d" inkscape:vp_x="0 : 526.14001 : 1" inkscape:vp_y="0 : 1000 : 0" inkscape:vp_z="744.03003 : 526.14001 : 1" inkscape:persp3d-origin="372.01501 : 350.76001 : 1" id="perspective15" />
  <style type="text/css" id="style6">

    .str0 {stroke:#B2B2B2;stroke-width:138}
    .fil0 {fill:none}

  </style>


 <inkscape:perspective id="perspective2830" inkscape:persp3d-origin="0.5 : 0.33333333 : 1" inkscape:vp_z="1 : 0.5 : 1" inkscape:vp_y="0 : 1000 : 0" inkscape:vp_x="0 : 0.5 : 1" sodipodi:type="inkscape:persp3d" /></defs>

<ellipse style="fill:none;stroke:#b2b2b2;stroke-width:138.34329224" sodipodi:ry="807" sodipodi:rx="803" sodipodi:cy="3992" sodipodi:cx="3305" id="ellipse9" ry="807" rx="803" cy="3992" cx="3305" class="fil0 str0" transform="matrix(1,0,0,0.99504322,-2433,-3100.9197)" /><g style="font-size:1600.19348145px;font-style:italic;font-variant:normal;font-weight:bold;font-stretch:normal;text-align:start;line-height:125%;writing-mode:lr-tb;text-anchor:start;fill:#000000;fill-opacity:1;stroke:none;font-family:Times;-inkscape-font-specification:Times Bold Italic" id="text2836" transform="translate(-1139.5049,-2043.827)"><path d="m 2117.7677,2362.3187 c 32.2952,0 59.512,11.2003 81.6505,33.5978 22.1376,22.3996 33.2067,49.4861 33.2071,81.2598 -4e-4,31.7756 -11.1997,58.8622 -33.5978,81.2598 -22.3989,22.3994 -49.4855,33.5987 -81.2598,33.5978 -31.2541,9e-4 -58.0802,-11.1984 -80.4785,-33.5978 -22.3988,-22.3976 -33.598,-49.4842 -33.5978,-81.2598 -2e-4,-31.7737 11.0688,-58.8602 33.2071,-81.2598 22.1378,-22.3975 49.0942,-33.5967 80.8692,-33.5978 z m 48.4434,359.4184 -160.1757,555.536 c -8.8554,31.7748 -13.283,52.6106 -13.2828,62.5075 -2e-4,5.73 2.3438,11.0692 7.0321,16.0176 4.6878,4.9486 9.6363,7.4228 14.8455,7.4227 8.855,1e-4 17.7102,-3.9066 26.5657,-11.7201 23.4401,-19.2731 51.5684,-54.1731 84.3852,-104.7002 l 26.5658,15.6269 c -78.6557,136.9958 -162.2595,205.4936 -250.8116,205.4936 -33.8584,0 -60.8147,-9.5064 -80.8692,-28.5191 -20.0545,-19.0127 -30.0818,-43.1041 -30.0817,-72.2743 -10e-5,-19.2731 4.4275,-43.7552 13.2828,-73.4464 l 108.6069,-373.4827 c 10.4178,-35.9413 15.6267,-63.0278 15.6269,-81.2598 -2e-4,-11.4591 -4.9487,-21.6166 -14.8456,-30.4724 -9.8971,-8.8546 -23.4404,-13.2822 -40.6299,-13.2829 -7.8135,7e-4 -17.1896,0.2611 -28.1284,0.7814 l 10.1575,-31.2538 264.8758,-42.974 z" id="path2841" /></g></svg>
