<?xml version="1.0" encoding="UTF-8" standalone="no"?>
<svg xmlns:dc="http://purl.org/dc/elements/1.1/" xmlns:cc="http://creativecommons.org/ns#" xmlns:rdf="http://www.w3.org/1999/02/22-rdf-syntax-ns#" xmlns:svg="http://www.w3.org/2000/svg" xmlns="http://www.w3.org/2000/svg" xmlns:sodipodi="http://sodipodi.sourceforge.net/DTD/sodipodi-0.dtd" xmlns:inkscape="http://www.inkscape.org/namespaces/inkscape" version="1.0" preserveAspectRatio="xMidYMid" fill-rule="evenodd" id="svg2" sodipodi:version="0.32" inkscape:version="0.47 r22583" height="40.000004" sodipodi:docname="caution.svg" width="46.191467" inkscape:export-filename="C:\ProgramData\PACBook\files\icons\caution.png" inkscape:export-xdpi="72" inkscape:export-ydpi="72">
  <metadata id="metadata31">
    <rdf:RDF>
      <cc:Work rdf:about="">
        <dc:format>image/svg+xml</dc:format>
        <dc:type rdf:resource="http://purl.org/dc/dcmitype/StillImage" />
        <dc:title></dc:title>
      </cc:Work>
    </rdf:RDF>
  </metadata>
  <defs id="defs29">
    <inkscape:perspective sodipodi:type="inkscape:persp3d" inkscape:vp_x="0 : 20.000002 : 1" inkscape:vp_y="0 : 1000 : 0" inkscape:vp_z="46.191467 : 20.000002 : 1" inkscape:persp3d-origin="23.095734 : 13.333335 : 1" id="perspective10" />
    <inkscape:perspective id="perspective10-7" inkscape:persp3d-origin="0.5 : 0.33333333 : 1" inkscape:vp_z="1 : 0.5 : 1" inkscape:vp_y="0 : 1000 : 0" inkscape:vp_x="0 : 0.5 : 1" sodipodi:type="inkscape:persp3d" />
  </defs>
  <sodipodi:namedview inkscape:window-height="838" inkscape:window-width="1600" inkscape:pageshadow="2" inkscape:pageopacity="0.0" guidetolerance="10.0" gridtolerance="10.0" objecttolerance="10.0" borderopacity="1.0" bordercolor="#666666" pagecolor="#ffffff" id="base" width="44.57px" height="40px" inkscape:grid-bbox="false" inkscape:grid-points="false" inkscape:object-points="false" inkscape:object-paths="false" inkscape:guide-bbox="false" inkscape:zoom="7.0700536" inkscape:cx="-3.0494939" inkscape:cy="3.0768077" inkscape:window-x="-8" inkscape:window-y="-8" inkscape:current-layer="svg2" showgrid="false" inkscape:window-maximized="1" />
  <path style="fill:#ffe912;stroke:none;visibility:visible" d="M 23.144894,2.4620496 2.3109382,37.9064 44.344942,38.239211 23.144894,2.4620496 z" id="path22" />
  <path id="path2884" style="fill:#000000;stroke:none;visibility:visible" d="m 5.7721665,34.777981 c 11.4708795,0 22.9417585,0 34.4126375,0 C 34.504835,25.059905 28.824862,15.341831 23.144891,5.6237552 17.353983,15.341831 11.563074,25.059906 5.7721665,34.777981 z M 21.081464,1.0642473 c 1.174469,-1.89728094 3.794451,-0.97159785 4.862138,0.5501111 1.339211,1.7592793 1.889399,3.9682751 3.137987,5.8059355 4.861145,8.5201301 10.09142,16.8234561 14.975149,25.3312671 0.828908,1.851239 3.358966,4.031139 1.419841,6.012841 -1.685278,1.602238 -4.179032,1.273058 -6.274712,1.037065 C 26.564157,39.398663 13.91975,39.76606 1.2792211,39.637019 -0.65993722,38.508681 -0.07967041,35.896672 0.95611418,34.334285 8.0812871,23.506842 14.309418,12.113804 21.081464,1.0642473 z" />
  <path style="fill:#000000;fill-opacity:1;stroke:none;visibility:visible" d="m 27.346166,16.891715 c 0.07941,0.411993 0.03544,2.07227 -5.563087,2.384522 0,0 -3.92454,-0.07099 -5.499408,2.116373 l -1.308795,2.028595 c 0,0 -0.84048,1.753471 -1.051695,2.723619 0,0 -0.288687,1.261165 1.177682,4.944922 0,0 1.094952,-1.164924 1.353071,1.739365 0.0066,0.07296 -3.18e-4,0.155022 0.0048,0.233369 0,0 1.17145,0.58514 0.967351,-1.787971 0,0 -0.01582,-1.206527 -0.799642,-1.784309 0,0 0.683882,-1.214877 -0.301791,-2.82868 0,0 1.07744,-0.89117 1.520084,-1.866254 0,0 1.228715,1.373516 3.402716,1.996607 0,0 -0.340167,0.671124 -1.932189,2.041651 -1.592021,1.370696 -0.800187,3.15194 -0.800187,3.15194 0,0 1.17325,-2.254763 2.819668,-1.0263 0,0 2.026718,-2.79255 2.64692,-2.656975 l 2.354074,-1.750302 c 2.290901,-1.162366 3.183586,-3.502044 3.183586,-3.502044 0.592182,-0.155737 1.161983,-0.43812 1.203084,-0.458789 l -3.376331,-5.699339 z m 3.376334,5.699328 0.03466,-7.26e-4 c 0,0 -0.03312,-3.4e-5 -0.03466,7.26e-4 z m -12.867897,2.67096 c -0.313526,0.997105 -0.903671,1.519811 -0.903671,1.519811 0.453212,0.758213 0.328044,2.427895 0.328044,2.427895 0,0 0.751087,1.49732 0.818911,1.050141 0.06774,-0.447256 0.800468,-1.484298 0.800468,-1.484298 0,0 -0.242897,-0.769122 -0.411691,-1.458906 -0.165204,-0.674961 0.528053,-1.154628 0.319796,-1.274112 -0.208352,-0.119395 -0.951857,-0.780531 -0.951857,-0.780531 z m 1.404883,0.904453 c -0.525981,0.67969 -0.427188,1.109597 -0.427188,1.109597 0,0 0.46551,1.094749 0.541844,1.055944 0.07643,-0.03872 1.225146,-1.059605 1.225146,-1.059605 l -0.387949,-0.325403 -0.07765,-0.398608 -0.874209,-0.381925 z m 3.8718,2.887311 -1.013156,1.255283 c 1.591014,-0.181771 1.013156,-1.255283 1.013156,-1.255283 z m -1.045695,1.356024 -0.978523,1.254557 c 1.591155,-0.181939 0.978523,-1.254557 0.978523,-1.254557 z m -1.828575,0.371832 c -0.8021,0.04821 -1.400406,0.963217 -1.400406,0.963217 -0.296105,0.600483 0.282228,0.811848 1.221937,0.441347 0.995071,-0.392202 1.017347,-1.055253 1.017347,-1.055253 -0.294335,-0.235228 -0.571513,-0.365477 -0.838878,-0.349311 z m -4.809125,0.334207 c -0.08564,-0.0017 -0.103213,0.03553 -0.103213,0.03553 -0.112314,2.008205 0.866812,1.682845 0.866812,1.682845 0.02632,-1.504941 -0.506672,-1.713389 -0.76361,-1.71836 l 1.2e-5,-1.1e-5 z" id="path3835" sodipodi:nodetypes="ccccccsccccccscccccccccccccscsscccsccccccccccccsccccccc" />
</svg>
