<?xml version="1.0" encoding="UTF-8" standalone="no"?>
<!-- Generator: Adobe Illustrator 11.0, SVG Export Plug-In . SVG Version: 6.0.0 Build 78)  -->

<svg
   xmlns:xapGImg="http://ns.adobe.com/xap/1.0/g/img/"
   xmlns:xap="http://ns.adobe.com/xap/1.0/"
   xmlns:ns="http://ns.adobe.com/SaveForWeb/1.0/"
   xmlns:x="adobe:ns:meta/"
   xmlns:dc="http://purl.org/dc/elements/1.1/"
   xmlns:cc="http://creativecommons.org/ns#"
   xmlns:rdf="http://www.w3.org/1999/02/22-rdf-syntax-ns#"
   xmlns:svg="http://www.w3.org/2000/svg"
   xmlns="http://www.w3.org/2000/svg"
   xmlns:sodipodi="http://sodipodi.sourceforge.net/DTD/sodipodi-0.dtd"
   xmlns:inkscape="http://www.inkscape.org/namespaces/inkscape"
   width="46.400002"
   height="40"
   viewBox="0 0 46.400002 39.999999"
   overflow="visible"
   enable-background="new 0 0 25.056 21.6"
   xml:space="preserve"
   id="svg2"
   version="1.1"
   inkscape:version="0.47 r22583"
   sodipodi:docname="warning.svg"
   style="overflow:visible"><defs
   id="defs17"><inkscape:perspective
     sodipodi:type="inkscape:persp3d"
     inkscape:vp_x="0 : 10.8 : 1"
     inkscape:vp_y="0 : 1000 : 0"
     inkscape:vp_z="25.056 : 10.8 : 1"
     inkscape:persp3d-origin="12.528 : 7.2000001 : 1"
     id="perspective21" /></defs><sodipodi:namedview
   pagecolor="#ffffff"
   bordercolor="#666666"
   borderopacity="1"
   objecttolerance="10"
   gridtolerance="10"
   guidetolerance="10"
   inkscape:pageopacity="0"
   inkscape:pageshadow="2"
   inkscape:window-width="1093"
   inkscape:window-height="585"
   id="namedview15"
   showgrid="false"
   inkscape:zoom="1.02"
   inkscape:cx="-173.36863"
   inkscape:cy="20.000001"
   inkscape:window-x="188"
   inkscape:window-y="125"
   inkscape:window-maximized="0"
   inkscape:current-layer="svg2" />
	<metadata
   id="metadata4">
		<ns:sfw>
			<ns:slices />
			<ns:sliceSourceBounds
   y="406.296"
   x="313.704"
   height="21.6"
   width="25.056"
   bottomLeftOrigin="true" />
		</ns:sfw>
<x:xmpmeta
   x:xmptk="XMP toolkit 3.0-29, framework 1.6">

<metadata
   id="metadata19"><rdf:RDF>

 <rdf:Description
   rdf:about="">
 </rdf:Description>

 <rdf:Description
   rdf:about="">
 </rdf:Description>

 <rdf:Description
   rdf:about="">
  <xap:CreateDate>2011-03-23T14:22:52Z</xap:CreateDate>
  <xap:ModifyDate>2011-03-23T14:22:52Z</xap:ModifyDate>
  <xap:CreatorTool>Illustrator</xap:CreatorTool>
 </rdf:Description>

 <rdf:Description
   rdf:about="">
  <dc:format>image/svg+xml</dc:format>
 </rdf:Description>

<cc:Work
   rdf:about=""><dc:format>image/svg+xml</dc:format><dc:type
     rdf:resource="http://purl.org/dc/dcmitype/StillImage" /><dc:title></dc:title></cc:Work></rdf:RDF></metadata></x:xmpmeta>
			</metadata>
		<g
   id="Layer_1"
   transform="scale(1.8518519,1.8518519)"
   inkscape:export-xdpi="67.887932"
   inkscape:export-ydpi="67.887932">
			<g
   id="g7">
				<polygon
   clip-rule="evenodd"
   points="1.296,20.592 23.976,20.808 12.528,1.44 "
   id="polygon9"
   style="fill:#ffe912;fill-rule:evenodd" />
				<path
   clip-rule="evenodd"
   d="m 12.528,0 0,0 c 0.504,0 0.864,0.288 1.152,0.792 l 11.016,18.36 c 0.216,0.432 0.36,0.792 0.36,1.152 0,0.936 -0.72,1.296 -1.8,1.296 H 12.528 v -2.664 h 9.216 L 12.528,3.312 V 0 z M 11.376,0.792 C 11.664,0.288 12.024,0 12.528,0 v 3.312 l 0,0 -9.288,15.624 h 9.288 V 21.6 H 1.728 C 0.72,21.6 0,21.24 0,20.304 0,19.944 0.072,19.584 0.36,19.152 L 11.376,0.792 z"
   id="path11"
   style="fill-rule:evenodd" />
			</g>
			<polygon
   clip-rule="evenodd"
   points="11.088,15.552 11.952,18 13.968,15.912 12.888,15.984 14.688,10.224 11.232,11.376 13.608,7.344 11.592,7.344 9.144,13.176 12.888,12.24 12.024,15.912 "
   id="polygon13"
   style="fill-rule:evenodd;stroke:#000000;stroke-width:0.21600001" />
		</g>
	</svg>
